<?xml version="1.0" encoding="UTF-8"?>
<svg width="594mm" height="841mm" clip-rule="evenodd" fill-rule="evenodd" image-rendering="optimizeQuality" shape-rendering="geometricPrecision" text-rendering="geometricPrecision" viewBox="0 0 594 841" xmlns="http://www.w3.org/2000/svg">
 <defs>
  <style type="text/css">.fil0 {fill:black}</style>
 </defs>
 <path class="fil0" d="m90.267 491.02c7.2283 7.183 4.6595 13.894-5.0504 3.1355-15.108-14.183-22.273-33.492-24.081-56.256-1.339-16.857 3.0224-35.61 6.507-55.579 2.5295-14.494 1.2805-33.973 4.6479-49.492 2.79-12.858 8.4081-25.979 13.982-34.873-8.1616-25.084-26.36-41.753-30.617-57.443-4.2568-15.689 0.4529-27.558 8.0275-34.515 12.552-11.529 50.248-20.705 99.201 10.831 13.165-6.9449 28.556-10.587 42.813-11.536 13.394-0.8918 26.635 6.1982 40.116 5.8636 16.554-0.4108 31.791-9.4918 48.469-9.1169 13.819 0.3104 30.048 6.6043 42.959 10.773 45.345-28.861 79.121-18.735 90.093-3.9002 9.6813 13.09 18.258 46.506-33.421 92.152-4.2248 4.579 0 9.1582 0 13.737-0.6081 11.604-4.1019 4.4916-9.2385-4.737 3.4371-24.464-4.6877-41.615-21.079-52.108 7.7909-15.778 21.345-25.217 38.844-30.317-3.1084-5.5118-11.104-1.352-13.798-4.1284-1.4809-1.5269 5.5644-4.0275 4.5317-5.873-3.0978-5.5362-13.384-11.004-20.578-13.21-15.06 1.3025-27.702 7.443-37.423 19.422-2.171 2.3576-7.8237 0.7019-6.1582-2.8423l2.8422-4.2633c-15.34-5.0532-31.026-11.333-44.129-10.162-16.321 1.458-29.551 11.211-43.754 11.296-17.844 0.1071-31.71-8.945-46.192-5.9138-15.159 3.1729-29.886 7.539-43.611 17.127-16.052 11.213-30.648 30.025-43.659 47.083-11.106 14.56-21.893 30.464-29.046 49.163-5.5092 14.402-2.5874 33.338-6.1332 49.542-4.1895 19.146-6.9418 39.44-8.0946 60.617-0.982 18.041 10.148 42.917 23.029 55.524zm337.27-261.33c-21.878-1.1304-41.336 5.0725-54.962 23.841 11.64 10.608 18.328 24.334 17.835 42.223 22.246-19.85 39.177-40.869 37.127-66.064zm-367.35-2.283c-0.7893 14.053 21.159 43.265 31.738 64.898 9.8563-15.283 20.454-30.195 34.107-43.581-20.37-23.212-42.317-30.317-65.845-21.317zm37.66-5.9213c12.553 3.8687 22.896 11.211 31.028 22.027 8.6054-8.9213 18.474-16.895 29.606-23.922-17.192-8.7534-33.179-14.694-47.844-15.869 1.1842 6.1582-28.896 8.053-12.79 17.764zm25.686 116.06c-1.2698 25.003-0.0617 44.817 3.6783 57.211 2.7643 9.1598 6.9122 14.266 12.464 14.418 3.9994 0.1089 8.8386-2.3519 14.628-7.7202 4.9271-3.6758 8.8761 0.8382 4.438 4.1422-4.0054 5.987-10.105 7.1794-12.312 12.846-2.5014 6.422-2.3685 14.874 1.0691 26.209 3.5348 5.3548 1.3082 9.1075-2.0711 7.9885l-27.22-12.426c-7.9381-1.9674-2.1124-5.9861 0-5.3257 8.5399 1.729 12.008-2.387 12.615-9.92 0.9963-12.364-7.7855-13.225-12.417-33.259-2.4902-10.772-3.0999-33.889-2.3197-47.58 0.2124-3.7311 1.4669-7.6734 1.8764-9.5635 3.3679-5.7723 7.6227-3.2676 5.5711 2.9816zm22.614 235.8c4.3645 9.926 10.304 19.601 17.876 28.724 8.581 10.338 19.259 19.968 32.116 28.448 7.142-15.096 15.424-24.078 24.794-27.228 8.8017-2.9598 19.122-3.0071 29.24 6.3248-22.898 1.4032-36.43 11.358-42.202 28.397-1.8251 10.194-9.7941 10.66-13.015 6.7049-16.828-23.138-50.13-40.413-48.809-71.37zm-55.447-57.823c2.6756-0.343 4.6908 1.776 6.2889 5.0409 0.8489 1.7342 0.2252 4.6076 0.8757 6.7921 0.5741 1.9268 2.4413 3.1378 2.9142 5.1257 0.7298 3.0679-0.1846 6.5206 1.0956 8.7198 4.8195 8.28 13.159 15.723 17.766 24.003 1.8472 3.3199 1.3179 7.0237 1.9559 10.793 0.9027 5.3337 2.7848 10.8 5.2939 15.499 2.0831 3.9001 3.7015 8.2173 6.655 11.771 2.8823 3.4683 7.611 8.3544 11.547 12.045 3.7636 3.5289 6.8424 5.907 5.2008 7.3957-5.8539 1.3559-13.353 2.7843-17.344-0.4692-1.9479-2.4484-4.5218-4.4428-6.3703-6.7926-1.9918-2.5318-3.2473-5.4161-5.0051-7.9542-1.7404-2.5128-3.337-5.0602-4.7293-7.7022-3.7779-7.1693-5.4801-15.878-6.4724-23.542-0.3591-2.772 0.3642-4.6996-0.2793-7.3656-0.2737-1.1346-1.8212-1.8807-2.1558-2.9953-5.1403-17.125-15.645-29.868-17.236-50.364zm182.82 35.017c-5.7011-1.2412-10.528-1.8004-14.746-1.3267-4.217 0.4737-7.8249 1.9809-12.387 1.8311-3.7971-0.1248-7.9224-1.7136-11.721-2.0633-3.4145-0.3143-6.7707-0.8535-10.115-1.3631-1.895-0.2886-4.5459 0.4092-6.4423 0.1856-1.8964-0.2238-3.039-1.3706-4.9536-1.4372-11.246-0.3921-22.65 1.3166-33.882 5.0875-3.772 13.658-0.6437 23.026 6.3557 29.214 4.6869 4.1435 11.47 7.4163 18.791 7.2114 7.7927-0.2179 16.126-3.3071 24.621-3.6425 8.2381-0.3255 15.488 1.1562 22.354 1.5251s13.458-1.1356 17.097-3.1248c3.2111-1.7555 6.0988-4.1011 7.9567-8.2675 3.5471-7.9536 3.6306-19.383-2.9285-23.83zm18.125-167.25c-2.2156 6.9168-9.3568-3.7475-10.148-8.0244-1.0846-5.861 2.0145-13.809 6.4949-20.049 1.933-2.6925 4.3782-6.5508 8.5443-9.119 7.4267-4.5779 18.671-6.0048 30.467 3.8318-8.0724 8.0267-17.232 13.456-29.067 12.497-3.7662 1.2116-4.5173 4.7742-5.1566 9.2495-0.4971 3.481-1.2703 7.4716-1.1339 11.614zm29.067-33.143c-1.9242-2.6711-5.2828-4.3655-9.0324-5.0048 0.2309 0.65 0.3559 1.346 0.3559 2.0708 0 3.5403-2.987 6.4114-6.6703 6.4114-3.6511 0-6.6176-2.8214-6.6688-6.3193-3.5652 2.1017-6.1558 5.5835-6.4005 10.557 10.448 4.7453 23.608 1.1951 28.416-7.7153zm-162.63-3.6401c2.7934-1.8974 5.6787-2.4928 8.3832-2.1515-0.7012 1.0148-1.1097 2.2318-1.1097 3.5409 0 3.5403 2.9871 6.4114 6.6701 6.4114 2.0373 0 3.8606-0.8791 5.0841-2.2633 1.3416 2.4052 2.0813 5.1447 1.9588 7.8827-11.248 2.2417-20.874-1.7695-20.986-13.42zm16.431 16.354c2.088 0.7753 3.3328 2.5958 3.9365 4.2127 1.1372 3.0455 0.193 6.4023 0.0528 9.7065-0.1318 3.1038 0.6102 6.1498-0.5384 9.2331-0.6042 1.622-1.7992 3.0733-2.5833 4.666 3.9844 4.2935 10.492-1.9811 12.144-6.6435 2.2775-6.4307 0.475-17.03-3.428-29.775-1.2469-4.0725-6.8055-10.249-13.707-12.314-4.8775-1.4596-10.644 1.1731-15.076-0.9339-1.9952-0.9482-3.1766-2.7569-4.6307-4.2605-5.0831-5.2562-9.5622-13.503-8.1726-21.1 1.1609-6.3456 4.0101-13.152 6.2097-19.653 2.8281-8.3577 4.9377-16.175 4.7529-21.483 1.1567-5.9588-2.2414-6.2305-2.7115 0-0.8262 1.7853-0.632 3.9942-1.1998 5.7489-2.0282 6.2676-3.5822 11.858-5.1073 17.296-1.6174 5.7687-4.3827 10.83-5.5248 15.882-1.2919 5.7151-0.6048 11.132-1.0007 16.296-0.3495 4.5564-1.9032 8.917-1.2776 13.112 0.6291 4.2173 1.8181 8.2687 3.6983 12.185 1.501 2.3049 0.1628 5.0779-0.1164 7.6973-0.1566 1.469 0.4653 3.0768 1.0233 4.0731 1.0626 1.8966 5.3137 0.6936 6.5536 2.4805 2.0461 2.9494 3.6851 6.2328 6.2959 8.4144 1.1866 0.9914 3.3064 0.8073 4.4703 1.9271 2.2352 2.1501 3.9678 5.4684 6.3391 7.6817 5.64 3.5047 4.0671-3.4774 6.1278-5.6507 1.6465-6.0586-0.0065-8.1411-2.4668-8.9044-1.4762-0.4581-3.07-0.201-4.6513-1.0527-3.0491-1.6421-5.9753-2.8924-8.8651-5.1793-3.7156-2.9405-6.6298-7.52-9.5046-10.4-3.5374-2.6563-0.8467-6.2663 0.5959-7.1082 1.0143-0.5914 2.8545-0.8494 4.4623-0.1739 0.9463 0.3975 5.2916 3.844 5.8812 4.8975 2.809 5.0186 7.9308 9.9348 18.019 9.122zm-52.385-64.222c3.8252-6.0854 7.9963-12.171 12.256-18.256 4.5914-7.2441 2.4767-7.7329-3.2538-0.9778-4.7958 5.967-9.3425 12.033-12.689 18.582-0.9578 2.9702 1.7354 3.4049 3.6875 0.6521zm13.774 199.51c-2.0627-3.2457-6.0567-1.9655-8.817-3.3086-6.5375-3.1808-12.087-7.6672-16.755-13.161-5.2716-6.2047-8.0033-14.676-9.1611-23.578-0.8447-6.4962-0.3962-13.07-1.7385-19.912-0.9544-4.8652-1.8012-10.537-1.794-16 0.0078-5.815 0.8832-11.431 0.1771-16.82-0.267-2.0375-1.7503-3.7285-2.05-5.7255-0.3435-2.2867 0.7334-5.5337 0.424-7.7852-1.8914-13.76-4.3172-25.916-1.5025-38.839 1.1445-5.2554 3.1854-10.55 4.6487-15.655 0.7144-2.4925 0.6312-4.9414 1.5147-7.3164 1.8108-4.8686 5.4871-9.0025 7.86-13.446 2.0937-3.9204 1.5901-8.7341 5.177-11.878 3.0362-2.5352 4.0844-1.3397 3.1454 3.5861-1.5233 10.076-11.096 18.922-12.68 29.023-1.744 11.128-0.1643 22.374-0.1105 33.447 0.0925 19.085-0.0718 37.658 1.2256 54.235 0.5163 6.5973 2.0516 13.278 3.3817 19.329 1.282 5.8324 0.2062 12.298 3.6622 16.808 1.6991 2.2175 2.1977 4.9131 4.2246 7.2845 3.8697 4.5274 9.5836 8.7388 13.694 12.248 2.27 1.9385 5.9897 2.7562 7.8044 4.2662 2.334 1.9416 2.4408 4.6031 2.0082 7.7654 0.9755 2.894 2.1928 4.312 1.8168 5.5987-0.7703 2.6345-4.6738 2.7244-6.1553-0.1654zm77.466-11.098c-1.1065-1.2196-2.5086-3.6136-4.9658-4.8106-2.0267-0.9874-5.2214-1.263-6.8591-2.0498-2.7291-1.3114-2.5451-4.0564 1.2001-4.8486 18.478-0.8675 16.749 3.499 25.391 3.3763 8.9161-0.1266 16.501-5.0394 27.3-4.2436 8.1164 3.3399 6.5149 5.6772 1.4435 7.6565-1.6905 0.6599-3.7668 1.2802-5.997 1.8842-5.7094 4.3824-5.1288 7.886-7.6931 10.731-4.274 4.7413-8.5483 7.3508-12.822 7.337-4.1604-0.0133-8.3213-2.5136-12.482-7.9539-1.5049-1.9676-1.3832-5.8415-4.5148-7.0783zm-35.127-74.374c3.0918-8.282-2.6467-6.773-4.3367-1.7346-8.243 17.908-14.421 36.048-19.389 52.587-4.1164 13.704-8.5285 26.105-8.0288 38.206 0.6336 15.343 5.9198 29.15 17.372 40.819 3.5312 3.5975 7.7558 3.7025 10.033 5.8381 1.8444 1.7308 0.995 6.0396-1.0714 11.514-1.9778 11.261 3.5067 19.616 9.1259 24.116 4.3741 3.5034 9.888 7.0208 15.757 7.8177 12.018 1.6317 25.529-2.5885 33.802-2.7928 12.187-0.3008 31.274 5.477 42.32-2.7663 5.9889-4.4696 10.699-13.387 8.4952-28.977-0.6235-2.8776-0.6487-4.5325-0.187-5.4099 1.021-1.9409 3.193-0.9529 6.5586-1.73 4.3275-0.9992 9.5731-2.7882 11.347-3.6836 9.5529-4.822 15.369-12.587 18.861-20.462 3.6706-8.2774 4.4755-17.998 3.4288-28.652-1.3744-13.986-8.1107-29.473-13.576-45.521-3.8619-11.34-6.004-23.015-9.9535-34.399-1.9143-6.7096-6.0464-3.2411-4.3367 0.8673 6.2788 20.549 10.66 38.609 15.769 53.408 4.2246 12.237 7.0603 22.92 7.4797 32.035 0.6754 14.679-6.159 25.701-10.854 31.498-1.6036 1.9801-3.4228 4.9336-6.6737 6.7735-5.4182 3.0672-13.467 4.5894-21.238 4.7009-6.9516 0.0999-14.365-2.8937-20.988-5.7876-5.4535-2.3828-12.615-4.9742-16.569-10.009-2.4218-3.0835-2.9312-7.3892-3.8203-11.918-0.3515-1.791-0.8978-3.5598-1.3933-5.4099-0.7784-2.909-1.1991-4.4073 0.2537-7.1328 2.6059-4.8884 6.9933-5.5925 9.2604-9.1088 1.3907-2.1567 2.453-4.3588 3.0219-6.6272 3.923 0.6851 8.4838 0.0229 13.714-2.0506 3.494-1.3855 7.4243-3.272 11.464-6.0391 0.7927-0.5428 1.2773-1.5383 2.1057-2.1116 1.2672-0.877 4.2987-1.4879 4.1577-2.375-2.4566-4.1297-8.8176 1.6834-13.877 0.6505-3.9583-3.5193-9.0497-5.2841-13.873-7.0419-7.617-2.7757-14.996 4.339-22.882 4.4282-7.1807 0.0811-14.876-7.0915-21.748-4.9224-2.5131 0.7932-4.989 1.718-7.4145 2.7657-2.3128 1.3733-0.5584 5.8709-6.9386 4.1199-0.5941-0.6074-1.5724-0.9675-1.9679-1.827-1.7131-3.7241-1.1577-10.07-0.0564-17.191 0.8907-5.7578 3.7059-12.055 5.5568-18.751 1.1479-4.1534 1.158-8.5943 2.4294-12.751-3.9907 6.1663-4.435 11.574-7.3859 17.758-2.7723 5.8097-5.4541 11.527-5.7913 17.38-0.2319 4.0281 0.2863 8.0702 1.7945 12.13 0.8085 0.6331 1.5425 1.0584 1.6408 1.5578 0.5938 3.0186-1.6946 4.1537-4.4623 3.3651-1.3511-0.385-1.57-1.1211-2.87-2.4291-0.578-0.496-2.3277-1.0386-2.8316-1.2206-2.8331-1.0228-4.0717 1.3571-1.4489 4.4944 1.5004 1.795 2.2715 1.866 4.3286 2.4645 4.5392 1.3213 9.8074 5.0844 14.219 5.3228 2.4314 0.1313 3.6674-1.391 5.6173-1.9804 1.365-0.4126 2.5805-0.2782 3.908-0.1708 1.4583 0.1181 3.0026 0.2722 3.845 1.2157 1.3413 1.5025 2.0643 3.5128 1.906 6.245 0.1734 1.4719 1.6 2.7778 2.8061 4.1937 1.2063 1.4159 3.4948 2.4541 4.9572 3.4433 2.7481 1.8592 6.5856 1.9788 7.8952 4.6614 1.6216 3.3224 0.9003 6.8674 1.1333 10.378 0.2816 4.2283-0.1295 7.7709-2.0729 10.761-2.999 4.6146-7.558 5.6363-13.065 8.1255-8.0486 3.6381-17.51 7.8203-22.007 9.5357-6.3373 2.4169-12.611 0.3687-17.715-2.5505-3.0624-1.7513-5.8433-3.4691-7.5751-5.6967-5.2123-6.7033-15.777-19.895-14.403-37.576 1.712-22.023 14.598-51.47 26.437-86.37zm86.4 18.86c-0.8016-1.813-2.9572-1.3832-2.1692 0.4347 5.9902 13.818 7.0154 28.399 7.4836 42.271 0.1139 3.3734 3.2585 2.6389 3.1452 0-0.618-14.392-2.3818-28.959-8.4596-42.705zm153.63-45.096c8.3889 11.094 7.3255 26.696 4.9705 38.956-3.735 19.442-15.553 37.961-30.114 55.444-5.6108 6.7382-1.9395 8.4669-1.9457 17.174-0.0047 6.2918-0.9022 12.352-2.5355 18.219-3.689 13.254-11.136 25.531-20.546 37.299-1.3171 1.6473-1.7814 1.8189-1.3844 3.9339 0.6695 3.5627 2.0989 5.2794 4.3525 4.9942 2.7913-0.3534 5.8178-7.2028 12.292-10.577 4.0101 1.108 7.1115 0.7474 9.3792-0.9597 1.8857-1.4193 3.1948-3.7706 3.9708-6.9828 0.4847-2.0085 0.8375-3.4946 1.6507-5.4112 5.3496-12.605 6.7107-25.9 4.7311-39.77-1.9146-4.3928-0.4009-8.0426 3.0356-11.275 4.4204-7.5109 9.281-14.678 12.612-21.49 6.6449-13.587 10.116-25.762 12.23-36.44 1.1978-6.0497 2.6433-12.855 2.1095-19.254-0.5862-7.0275-3.3156-13.566-5.5908-18.077-2.3566-4.6721-5.5074-7.1693-9.218-5.7835zm-24.243-55.637c-2.381-1.847-1.4666-3.923 0-3.26 17.877 12.84 28.94 27.8 30.043 45.857-0.0055 3.7197-2.6221 2.2983-6.2255-1.067-1.4004-1.3067-1.0962-2.2138-1.339-4.0946-1.835-14.192-9.9587-26.48-22.478-37.435zm38.338 47.397c-3.6154-2.1699-2.0068-6.4044 1.7347-4.5535 22.443 16.578 38.947 34.059 46.962 52.828 1.1892 0.7422 2.7767 1.9509 4.8613 3.7649 6.5895 3.5336 10.917 8.067 15.639 12.651 7.1297 6.9215 13.426 14.586 15.991 24.074 1.1455 4.2381-1.0002 8.528-0.8187 13.308 0.1302 3.4361 1.8469 7.2345 1.8589 10.99 0.0044 1.4697-1.216 2.7954-1.4448 4.2974-2.029 13.307-5.7396 28.492-14.312 45.48-3.1729 5.7492-6.7769 9.3467-11.05 9.0961-1.2011-0.0705-1.9413-1.5054-3.254-2.2227-0.9714-0.5306-3.5013-0.1032-4.7449-0.6827-3.904 10.354-19.976 23.598-31.701 34.259-17.453 15.869-43.541 24.44-65.495 38.906-8.554 5.6366-11.481 14.693-18.686 22.116-2.0383 2.1002-5.1322 4.9359-8.328 6.61-4.8195 2.524-9.4042 3.9054-14.043 7.1753-5.3002 3.7366-7.6074 5.3238-8.8792 4.977-0.9274-0.2527-1.3483-1.2659-0.6368-3.2515 1.0496-2.9303 2.7583-3.8289 4.9617-5.7239 5.3876-4.6336 9.3787-11.129 14.785-16.265 7.9818-7.5811 17.914-13.336 26.76-19.007 22.83-14.633 48.514-22.532 68.418-39.499 6.4002-5.4554 13.756-10.668 19.623-16.55 4.7851-4.7976 8.4164-10.101 12.579-15.309 0.0401-0.1565 0.0975-0.325 0.1748-0.5088 15.026-27.304 23.774-51.252 23.56-70.407-0.0819-7.3273-0.663-14.498-3.5197-20.343-1.4451-2.9566-4.0785-5.1702-6.2913-7.7163-2.8867-3.3208-6.4436-6.2842-10.714-8.8659-0.5249-0.1784-0.9958-0.3157-1.4266-0.4316 2.9585 9.9199 4.4945 20.404 1.918 30.938-1.822 7.4491-6.1961 13.844-11.258 21.586-3.057 4.6762-5.9863 10.535-9.8327 15.451-3.1139 3.3357-4.9205 2.9412-4.9234-4.6625-0.0013-4.4968-0.3359-5.8298 1.6244-9.9361 9.1218-19.104 12.204-34.93 11.172-48.521-1.4078-18.536-9.4499-35.354-21.299-48.205-5.8427-6.3373-12.611-11.71-19.967-15.848zm-199.05 258.03c-6.2951-2.4954-5.4184-5.8505-0.2168-5.6376 1.84 0.403 3.6669 0.8403 5.4772 1.3187 3.3547 0.8863 5.8948 2.8937 9.1192 4.1115 4.7132 1.7801 10.027 2.987 14.365 5.7206 6.8637 4.3257 13.187 10.029 18.741 17.688 1.2121 5.0196 0.8299 7.4706-0.6216 8.1967-1.4957 0.7485-3.6399-1.094-6.8341-3.0824-2.3309-1.4508-5.4497-2.6241-8.1562-4.6807-1.4685-2.1511-3.5372-3.5507-5.2399-5.4918-2.8373-3.235-5.5272-6.8182-9.0911-9.401-3.8125-2.7629-7.6081-5.537-12.366-7.4527-1.5202-0.612-3.5531-0.7708-5.1778-1.2893zm72.422 4.1199c2.1603-3.2289 5.0896-5.783 7.4657-8.8145 1.5656-1.9973 1.9637-4.4061 3.5775-6.3558 10.096-12.198 21.152-24.469 33.414-34.621 4.2595-3.5263 8.7604-5.842 13.286-9.1184 3.0962-2.2417 6.0422-4.5532 9.5432-6.4169 3.9675-2.1121 8.4958-3.774 11.951-6.3679 10.382-7.7938 20.08-17.125 29.127-25.614 3.2847-3.0817 3.4449-2.2047 6.9137-3.4901 1.9809-0.7345 4.3653-3.1329 5.5027-4.2114 3.7579-3.5631 4.1024-7.7342 5.4609-7.4825 1.2422 0.2303 2.2148 2.5346 0.3494 6.7067-1.3226 2.9587-3.8502 6.042-6.064 8.451-7.8926 8.5904-16.89 16.831-26.14 24.643-16.18 13.662-34.29 25.974-49.324 40.91-9.5378 9.4752-17.04 20.598-25.963 30.755-2.2747 2.589-5.4533 4.8109-7.8281 7.2839-2.934 3.0557-4.3756 5.8454-6.8365 9.1782-5.0961 6.9007-9.85 2.6943-8.8844-5.1291 0.3778-3.0614 2.3667-6.493 4.4487-10.306zm51.823-112.1c2.8308-2.2913 5.0948-3.9779 6.8588-4.6198 3.1451-1.1442 4.292 0.4976 1.2997 4.1598-6.8037 7.6857-10.399 16.486-14.058 24.932-2.102 4.8528-3.7688 9.7055-4.7258 14.558-12.571 17.529-31.692 20.857-45.028 33.655-5.9754 5.7343-12.475 11.41-17.588 17.997-2.0792 2.6784-3.3638 5.7344-5.1718 8.653-4.2243 7.6409-7.182 11.371-8.7333 10.319-0.6784-0.4605-1.8135-1.5002-1.5553-3.55 0.2277-1.8082 1.7932-4.404 2.1239-8.0815 0.2594-2.8883 0.0291-6.7978 0.1391-11.077 0.131-5.0971 0.2371-6.6846 3.6869-10.296 9.3992-9.8389 18.784-16.92 28.368-22.537 12.426-7.2819 25.875-6.8474 34.934-16.965 6.1205-6.8365 7.4543-16.883 11.26-25.678 1.8584-4.2948 4.3064-8.2914 8.1897-11.47zm-201.65 19.12c-20.766-6.5567-37.45-19.992-52.435-36.29-1.8433-2.1824-3.6149 0-1.0847 3.0427 8.1664 11.592 18.466 21.648 29.857 30.247 4.9913 3.7683 9.3166 7.8717 15.238 10.667 3.0499 1.4396 6.9238 1.5688 10.219 2.77 4.7833 1.3709 4.8392-1.1016 3.1446-4.9986-1.3887-3.1922-1.7105-4.4196-4.9386-5.4383zm-22.5-168.86c-1.0192-1.384-2.2388-3.4101-1.4643-4.9443 0.5723-1.1336 2.8352-0.5046 3.7961 0.3258 1.6869 1.4575 1.7095 4.2594 3.3079 5.8136 1.5831 1.5395 3.8414 2.1946 5.8568 3.0971 1.3931 0.6237 3.0773 0.607 4.3383 1.4671 1.3766 0.9388 2.6168 2.2323 3.3078 3.7488 0.436 0.957 0.5694 2.3958-0.1625 3.1514-0.8023 0.8283-2.2754 0.7082-3.4165 0.5434-0.9773-0.1412-1.8348-0.7933-2.603-1.4128-0.6511-0.5252-0.9438-1.4048-1.5727-1.956-0.8336-0.7308-1.8481-1.2258-2.7656-1.8472-1.0342-0.7004-2.2954-1.1562-3.091-2.1192-0.995-1.2048-1.0436-3.0468-2.115-4.1835-0.8707-0.9238-2.6636-0.6619-3.4163-1.6842zm228.06-80.752c5.01 11.986 10.043 23.777 13.192 34.745 0.8486 2.9561 2.9563 5.3295 3.8684 8.2076 2.7366 8.6341 4.2602 17.468 5.1195 25.445 1.5698 14.576-0.903 28.137-2.7962 40.82-1.6596 11.116-3.5767 20.726-7.1599 30.602-0.5861 1.6156-2.009 3.1862-2.6397 4.827-1.4339 3.729-2.0082 9.1563-3.9493 12.672-2.1426 3.8809-5.7396 7.1165-8.437 10.784-2.8011 3.8081-8.9676 6.1028-12.069 9.8381-0.9261 1.1151-2.1085 1.2963-3.0585 2.0848-2.5235 2.0953-4.8853 4.2038-7.5549 7.3578-3.1498 3.7207-7.5969 6.7507-7.1219 11.817 0.6858 7.3135 3.8939 4.074 8.3205-4.2662 3.8026-8.8657 9.1925-11.954 14.631-13.538 6.1638-1.7942 12.39-1.6549 16.44-5.7991 3.3482-3.4265 2.1377-8.3523 4.6796-12.116 9.9733-14.769 18.403-30.443 21.286-46.579 1.1471-6.4223 1.7196-12.996 1.7628-19.708 0.0738-11.491-3.7871-22.739-6.583-34.984-4.6601-20.408-10.603-42.431-21.534-64.486-3.1999-5.9436-9.9605-5.9816-6.3965 2.2765zm-185.54 24.68c4.9448-0.3549 6.3436 4.1367 8.1555 6.4085 1.1242 1.4092 1.8207 3.2 2.832 5.0067 1.0764 1.9231 2.4385 3.8653 2.588 5.3854 0.1134 1.1536-0.1576 2.0654-0.9942 2.5417-2.8438-2.1579-7.6999-9.3267-12.449-10.552-2.689-0.694-5.7382 1.5677-8.7679 2.493-2.8459 0.8694-5.6886 0.4261-7.8159-0.7137-2.5692-1.3764-4.9237-3.0174-6.9755-5.0279 0.8475-4.1791 5.0038-2.2321 7.4739-3.446 2.7996-1.3761 5.5397-3.1235 8.3205-3.4285 2.5563-0.2802 5.1026 0.0601 7.6323 1.3325zm95.443 176.58c-4.897 0.033-5.2932-5.2661 0-5.2162 1.6015 0.0151 3.4792-0.0348 5.0009 0.2499 3.3497 0.6263 6.2333 1.8298 9.531 1.5396 3.6698-0.3231 6.9452-2.258 10.672-3.1804 1.4583-0.3612 3.4002-0.3378 4.8393-0.3476 4.2238-0.0292 2.9597 5.7291-1.9523 5.5419-4.684-0.1786-9.2193 1.7248-13.543 2.0776-5.0563 0.4124-9.8441-0.6962-14.548-0.6648zm-106.18-10.106c-1.8033-1.5836 1.7944-4.9887 3.3622-3.2598 1.6054 1.7706 3.905 2.9374 5.6532 4.216 1.6426 1.2015 2.4226 2.7778 4.3541 3.4967 1.6392 0.6102 3.4735 0.1682 5.2648 0.5106 2.6792 0.5119 5.1029 1.5589 7.976 2.0352 1.9666 0.3258 4.3458 0.0965 6.361 0.3908 1.6364 0.2389 2.3948 1.1463 3.052 1.9151 1.9723 2.3074 0.0359 5.7653-5.7635 4.9307-1.7627-0.2537-3.2428-1.7061-4.9416-2.0321-5.0961-0.9781-10.102-1.3909-14.358-3.727-2.3287-1.2783-5.0139-2.5734-7.0076-4.2365-1.5503-1.2937-2.4473-2.9182-3.9523-4.2397zm178.63-85.846c-0.8907 0.0341-2.0693 0.4766-3.013 1.0064-3.3706 1.8928-7.4964 3.519-9.1343 0.4064 5.6239-5.1502 9.5529-12.795 13.458-18.892 1.5878-2.479 0.5678-5.1998 2.5934-7.2969 3.3295-3.4467 7.2501-0.3929 6.0737 4.3465-0.9922 3.9969-3.3253 8.3405-4.7249 12.61-1.3563 4.1377-2.4655 7.7126-5.2531 7.8192zm-14.225 10.695c3.2013 9.0633-6.2468 20.667-11.262 20.304-1.6715-0.1209-3.4831-1.0345-5.4346-2.74 0.5262 4.4903 2.569 7.6531 5.2854 8.2352 2.5167 0.5395 5.0254-2.8877 8.2097-4.1331 2.0417-0.7982 5.0329 0.1963 6.2749 0.7579 5.3012 2.3963 8.5002 5.9161 9.3914 10.37 0.7943 3.9708 0.4191 8.9413-2.7951 14.699-2.5805 4.6231-7.2413 9.6966-12.706 15.605-2.2068 3.0954 1.1551 3.6913 4.1198 1.9515 7.0817-5.1185 11.97-11.204 15.255-17.995 0.8515-1.7601 1.4633-4.1328 2.5435-6.0749 1.685-3.0297 3.811-5.7154 4.384-8.7945 1.001-5.3795-0.9331-10.537-0.9326-16.357 0.7015-1.4026 2.0924-1.8298 2.7606-3.2358 0.6344-1.3356 0.5439-2.8901 0.8525-4.3788 0.2403-1.158 0.8731-2.256 1.3104-3.317 1.2854-3.1188 2.6698-6.1953 3.3674-9.6093 0.5091-2.4915 0.3239-5.3415 1.0966-7.6398 0.9412-2.7996 2.5209-5.4253 3.5892-8.0743 1.9047-4.723 3.2502-9.405 4.0346-14.444 0.553-3.5541 0.2831-7.2717 0.5254-10.873 0.5148-7.6427 1.0616-15.24 0.6773-22.993-0.038-2.8365-0.0439-4.4173-1.0387-5.4019-1.3977-1.3836-2.8016-0.3452-4.6291 1.1489-1.6122 1.3179-2.8506 3.3729-4.7935 4.994-1.0974 0.9154-1.9954 1.3899-2.1054 2.7964-0.1409 1.8005 0.2779 3.648 1.5082 5.3527 1.4414 3.9615 2.1507 7.923 2.3527 11.853 0.3832 7.4563-0.1896 15.072-1.9141 22.089-1.5215 6.1917-4.1323 11.858-5.0368 17.396-0.8936 5.4691-2.2268 10.009-4.3411 12.89-3.7509 5.1111-14.898 6.037-20.55-4.3822zm-13.01-169.35c7.2194 9.8867 12.603 20.25 17.017 31.786 5.4981 14.37 6.8529 31.353 7.8341 43.265 0.6892 8.367 2.205 15.915-1.996 22.032-1.5194 2.212-3.4573 4.4731-6.9178 6.1852-5e-4 2.8921 4.6086 3.8827 3.1441 6.8832-3.883 5.38-8.1815 9.3621-12.833 12.152-2.8006 1.6796-5.459 2.2211-8.5027 3.082-2.6857 0.7596-5.7323 1.9249-8.5873 2.1132-0.9224-0.2803-2.2918 0.2256-2.9069 0.6343-2.4089 1.6011 0.3437 6.1457 2.1067 9.6938 0.7599 1.5298 1.3678 2.8191 3.3211 2.3667 1.3759-0.3185 1.9731-2.8256 3.676-4.6549 0.5439-0.5844 1.8348 0.0219 2.4764-0.6676 2.966-2.6907 7.1228-4.3284 10.117-6.452 1.3096-0.9289 1.8553-2.2778 2.9231-3.2311 1.3725-1.2254 3.2554-2.0116 4.9929-2.6637 1.8636-0.6996 4.5441-1.3623 6.8237-2.3178 1.7729-0.7433 3.1548-1.9218 4.6877-1.7749 1.9665 0.1882 3.4282 1.9151 4.7154 4.08 0.5419 1.2168 5.964 3.7917 4.228-3.7935-1.7804-3.7743 0.4111-4.4482-0.0847-7.9084-0.3393-2.367-1.319-5.0769-1.4765-7.6591-0.1896-3.1038 0.8574-5.2776 0.5137-8.3211-0.2933-2.5973-0.6531-5.0378-1.094-7.0905-1.0832-5.0388 1.5721-7.9757 4.822-5.0323 1.0158 0.9198 0.0744 4.0987 3.0658 4.678 2.5903-1.7869 0.6921-5.5293 0.4264-8.5566-1.2804-14.588-11.247-32.773-18.532-47.679-5.6533-11.567-12.47-22.821-20.49-33.75-1.8886-1.8495-5.1598 0.4035-3.4693 2.602zm-12.135 78.673c-6.616 5.9405-11.569 12.388-14.858 19.343 2.6019-2.9759 5.7564-5.6634 9.7673-6.5945 2.2071-0.5121 4.1074-0.3421 5.86 0.1007 1.446 0.365 4.3111 0.4274 5.6472 0.9341 2.2276 0.8445 2.9104 2.055 5.5002 1.5899 1.9967-0.3588 3.253-2.5396 5.2635-3.5843 1.5308-0.795 3.0229-1.3452 4.7646-2.174 0.8504-0.4048 2.0503-0.7111 2.7842-1.4646 3.4876-2.0544 1.8975-5.0326-1.0243-4.7526-2.8079 0.2688-6.9369 0.0796-10.251-0.7636-3.6253-0.9227-8.1104-1.8012-13.454-2.6337zm-23.861 14.67c-0.6135 1.1151-1.3821 2.1743-1.7947 3.4345-0.5306 1.6195-0.6941 3.442-1.264 4.9032-0.3661 0.9391-1.4971 1.231-1.748 2.1766-0.7591 2.8581-0.9227 5.7401-0.0738 8.6109 0.2189 0.7408-0.6739 1.6102-1.7942 1.4185-0.7667-0.131-1.7557-1.1353-2.1104-1.5271-1.9816-2.1894-2.9948-4.598-3.2486-7.1082-0.3977-3.9355 2.4791-7.5795 4.9994-11.571 0.7717-1.2217 0.3557-2.8802 1.1778-4.1411 2.0604-3.1592 5.2773-1.2669 5.5602 1.6369 0.065 0.6697 0.6931 1.4455 0.2963 2.1665zm35.345-107c5.1462 1.1044 6.7995 0.8624 6.7374-0.0401-0.1154-1.6863-2.367-2.7509-3.7298-3.2436-3.2554-1.1768-6.8883-2.1075-9.8797-3.253-2.7583-1.0561-4.63-2.5105-7.3679-3.1244-7.0944-1.5911-14.158-1.4442-20.991-1.2191-11.71 0.3861-23.065 3.5567-34.155 9.9042-1.3111 2.0934-5.978 1.6135-11.657 0.0998-3.7486-0.9989-6.8193-2.1816-10.704-2.4229-25.1-1.5617-48.846 1.592-68.276 19.778-4.6505 4.4463-0.1318 4.7724 3.6862 1.5178 14.175-8.2948 25.595-12.878 35.172-14.978 7.7355-1.6962 15.175-2.0207 21.886-1.4011 4.6981 0.4339 9.3649-0.8421 13.201 0.3713 2.277 0.7204 3.5637 2.3466 5.3899 3.6856 2.6688 1.9572 5.6285 3.7969 7.3996 5.3813 3.9053 4.6341 0.0015 7.2579-6.9395 4.503-10.254-3.4794-23.272-2.2941-37.619 1.0122-2.816 0.6489-5.5794 0.3876-8.4965 1.2755-3.1753 0.9667-5.9861 2.863-9.2916 4.0431-2.6673 0.9521-5.3751 1.9697-8.119 3.0448-3.4863 1.3657-5.9159 2.4868-8.3601 5.5061-2.7876 3.4444-0.9255 7.7852 6.4034 6.4207 3.5769-0.0395-2.119 2.8865-3.2114 4.0351-5.2724 5.5449-5.2438 7.5156 1.081 4.6333 1.672-0.7618 3.1053-3.2202 5.5997-4.5485 12.319-0.5899 9.8888-10.456 15.678-14.054 2.7832-1.73 6.1893-1.3301 9.3254-2.2945 4.2968-1.3215 8.3738-3.7755 12.259-4.7042 6.4966-1.5535 12.964-2.2869 19.657 0.1268 7.7249 2.3491 6.3173 9.1333 5.9377 11.702-0.3349 2.2672-2.9101 3.4941-8.8649 3.153-3.4933 0.4022-6.9168 0.8657-10.246 1.4094-5.692 0.9292-11.113 3.4532-16.148 4.951-3.4454 1.0249-6.7111 0.8476-9.759 2.2151-6.3079 2.83-10.506 7.9872-15.409 11.71-1.5495 1.1767-2.4501 1.8719-3.521 3.5587-1.6489 2.5973 1.2061 5.1065 7.1627-0.2093 2.7661-0.4687 2.9465 0.6071 1.9515 2.3852-6.5752 10.784-2.0724 12.072 2.6387 7.8673 2.8266-2.5232 2.8809-11.043 7.5525-11.554 2.7881 0.8437 5.9683 0.6505 9.4101-0.2342 3.7652-0.968 6.4348-4.8842 10.656-7.0585 3.9654-2.0423 9.467-2.2991 13.543-4.6331 2.2416-0.8197 3.8382-1.0623 4.6863-0.6362 1.1884 0.5975 1.3408 3.1626-0.6931 6.6426-0.7358 1.2586-1.8096 2.4509-3.3427 3.7511-1.5699 0.9214-4.0783 2.8006-6.0056 3.5109-2.0521 0.7563-4.0002 0.1311-5.7762 1.0046-1.593 0.7834-2.5539 2.5134-3.928 3.3963-1.4182 0.911-3.2462 0.9776-4.5836 1.8777-6.9946 4.7063-12.051 9.9974-16.135 15.58-0.9341 1.712-1.8215 3.3843-2.2619 4.6769-0.7937 2.3301-0.1653 3.8152 4.1708 1.5369 0.8996-0.4727 1.7003-1.9401 2.9681-2.6725 1.2854-0.7428 3.1947-0.9409 4.8805-2.0235 4.7584-5.1668 10.03-9.9408 10.408-4.2823 2.5294 5.2167 4.8787 4.6923 7.372-1.1385 1.3949-2.7999 3.0754-4.4753 4.9736-5.2932 2.4395-1.0514 5.0226-1.3392 8.0364-0.1292 1.3343-0.9316 2.0279-1.9624 3.0791-2.7785 2.9054-2.2557 4.9427-3.9535 3.209-5.6764-4.7843-2.9754-2.0336-12.643 7.915-3.7959 1.9889 2.291 5.4905 3.0489 8.9359 4.423 3.2366 1.2906 6.4249 3.1898 8.2641 5.4889 1.2937 1.6174 1.0729 3.889 1.9504 5.8334 0.6825 1.5119 2.5443 2.6337 2.9865 4.3401 0.6068 2.3401-0.7963 5.1884 1.1721 7.5621 1.6117 1.0678 3.033 1.8992 4.2747 2.5094 3.3391 1.6403 7.0991 1.8345 9.0964 0.651 2.2632-1.3407 2.2624-4.4518-3.18-9.2317-2.3279-2.5433-1.5217-3.72 0.7792-4.2441 1.1767-0.2681 3.0167 0.6117 4.7566 0.5891 2.2367-0.0289 4.4866-0.9128 6.8237-0.8985 3.8429 2.2944 5.518 2.3872 6.2939 1.7877 0.6697-0.5179 1.3831-1.7623 0.8322-3.0417-0.755-1.7536-3.1238-3.6224-4.2665-4.2176-1.7723-0.9227-4.5893-2.3126-7.5777-3.13-2.6365-0.7215-6.2088 0.1001-7.8582-1.5896-2.4567-1.7619-5.0142-3.3567-7.643-4.8304-2.868-1.608-6.4392-2.4561-9.5321-3.7503-1.0311-0.4314-1.6241-1.2992-2.6331-1.7454-2.4364-1.0771-5.8501-1.2165-8.234-2.3297-2.5375-1.1853-4.6429-2.9647-6.6511-4.474-4.0283-1.1655-1.6031-4.6848-0.2961-5.2991 2.1779-1.0233 8.4159 1.2893 11.96 1.3041 2.7892 0.0114 6.4732-0.8905 9.6597-0.5764 1.2467 0.1227 3.1056 0.964 4.3712 1.1011 2.3376 1.2196 5.0699 1.8511 6.4728 3.8559 1.4661 2.095 4.8631 3.6544 7.2956 4.3847 0.2943-2.6857-2.5165-3.2868-3.2826-4.6837-1.3658-2.4899-1.2319-4.2285 2.8489-3.9896 4.702 0.9074 6.4268 5.0025 9.0722 8.2597 2.8165 3.4672 6.3266 6.7028 9.1418 10.171 4.6684-6.1901-4.7464-18.19-14.67-24.107-7.4765-4.4576-18.321-7.4977-33.684-8.6351-6.2029 0.2691-4.6887-6.9725 1.042-9.732 2.7005-1.3005 6.8076-2.4744 12.618-3.4948 23.366-3.8851 33.408 11.862 44.234 26.454 2.9926 3.6432 9.281-0.7088 6.7993-6.0027-0.971-2.0716-2.87-4.7867-5.9319-8.3083-14.999-15.59-32.468-25.626-58.762-15.829-5.1312 0.8769-7.0965-2.2214-7.299-4.1783-0.1386-1.339 0.3252-4.8018 4.0465-5.1455 4.3387-3.1072 10.467-2.8342 15.32-4.476 4.418-1.495 7.5197-5.0246 12.319-5.432 6.4564-0.5484 13.891 1.7874 20.947 2.9483 6.2263 1.0241 12.015 0.7009 18.632 2.8399zm-115.28 123.09c-1.7302-2.5625-3.0258-5.2048-3.6612-7.9657-0.2621-1.1385-0.0738-2.3282-0.2173-3.6549-0.1625-1.5033-0.6287-3.1529-0.4074-4.5392 0.2498-1.5652 0.8241-2.9356 1.8997-3.8349 2.2549 1.5142 1.7134 3.9963 2.9743 5.8145 0.8346 1.2032 1.8415 2.33 3.1267 3.3323 1.3706 1.068 1.2001 0.9651 1.7151 2.5814 0.2395 0.7522 0.538 1.4627 0.6557 2.1975 0.1303 0.8122-0.0218 1.4848 0.0801 2.2273 0.3643 2.6525 0.7909 4.9289 0.5442 6.3342-0.4776 2.719-3.2088 3.0102-4.8101 0.8031-0.558-0.7693-1.1903-1.8626-1.8998-3.2956zm39.804-54.116c2.1881 3.0583 4.6313 5.9403 7.2548 8.6967 3.5955 3.7769 10.242 6.1774 11.617 10.755 1.8397-3.4616 1.8792-6.8303 0.2693-10.114-0.7631-1.5563-2.6667-3.4592-4.2339-5.3288-1.9528-2.329-3.7442-4.5176-6.3389-4.8777-2.1665-1.3816-3.3976-3.1121-4.8197-3.8179-5.5805-2.7695-4.8489 3.1035-3.7486 4.6871zm-30.585 33.034c-0.9846-2.1844-4.8782-3.4672-5.8243-5.6878-0.4953-1.163 0.769-3.4738 1.5945-4.4181 2.0612-2.3576 5.3051-4.0114 7.9053-4.6304 1.7794-0.4238 3.1139 0.3005 4.1336-1.0202 1.3774-1.7843 3.3794-3.6701 5.5911-5.5378 1.5152-1.2795 3.5278-1.0234 5.4021-2.0007 2.1244-1.1078 4.1646-3.3838 6.7939-3.6541 3.4279-0.3529 5.414 4.2708 8.0259 6.5198 1.6392 1.4115 3.031 3.1222 4.6733 4.5217 0.3788 0.3229 0.7717 0.6297 1.1833 0.9116 0.8018 0.5496 2.9451-0.0845 3.8174 0.3629 1.2747 0.6541 1.314 2.3243 2.6901 2.6797 1.163 0.3006 2.4957-0.9539 3.5791-0.4347 1.1481 0.5499 1.4731 1.704 2.5183 2.4341 1.9538 1.3652 4.5314 2.4715 6.3752 3.9773 1.1003 0.8986-0.13 4.3356-1.158 4.409-1.9632 0.1398-5.7097-3.8217-7.6271-3.9743-0.6882-0.0548-1.0267 2.2664-1.782 4.1893-0.5876 1.4954-1.6 2.7073-2.1223 2.6488-1.9915-0.2228-3.6638-7.7101-5.5316-8.2509-1.2113-0.3504-2.0263-1.7827-3.1368-2.726-1.1104-0.943-2.5136-1.412-3.5876-0.7511-1.3088 0.8055-3.896 0.0567-4.5657-0.8931-0.5897-0.8366 1.1603-3.3759 1.3122-4.3228 0.8551-5.3348-2.6174-5.5168-6.0737-2.1736-1.7188 1.6627-8.0033 1.9721-9.2487 4.0073-0.7472 1.2212 3.0791 3.5392 2.1988 4.5774-1.508 1.7789-1.7492 4.2938-3.2593 6.1982-1.9416 2.4491-5.1678 4.281-7.274 6.3698-1.1928 1.1832-1.7458 2.6004-3.2408 3.4059-1.1733 0.6323-2.355-0.1737-2.7996-1.8702-0.3923-1.4962-0.0795-3.7945-0.5626-4.867zm-42.298 173.1c0.0507 0.9916 1.5105 1.765 2.4946 1.6299 1.276-0.1753 3.1025-1.104 3.0367-2.3907-0.0637-1.2453-2.0183-2.017-3.2538-1.8472-1.1435 0.157-2.3363 1.4557-2.2775 2.608zm-8.8936-7.6066c-0.0332 0.4357 0.7761 0.6729 1.1931 0.5434 0.7875-0.2449 1.8891-0.6991 1.952-1.5215 0.0552-0.721-1.0443-1.5186-1.7351-1.3039-0.8536 0.2655-1.3416 1.3907-1.41 2.282zm22.776 23.254c1.2495-3.2304-1.9892-5.7276-3.5791-3.3687-1.255 1.8621-2.4813 4.0761-4.5553 5.6507-2.1925 1.6644 0.4477 3.6523 2.8201 2.1732 1.9614-1.2227 4.4805-2.2993 5.3143-4.4552zm5.8568-9.2364c1.2129-0.3713 1.1536-3.0854 0.1084-3.8035-1.1216-0.7706-3.8658-0.1651-3.9045 1.1955-0.0437 1.5344 2.3282 3.0575 3.7961 2.608zm15.943 0.3257c0.0556-0.8673 1.6346-0.8865 2.4946-0.7605 0.7945 0.1165 2.0038 0.611 1.9523 1.4126-0.0624 0.9713-1.2059 2.0971-2.1691 1.9559-1.1422-0.1674-2.3519-1.4565-2.2778-2.608zm-40.129 1.5215c-0.2772-1.0829 0.3689-2.6358 1.4099-3.0427 1.0259-0.4012 2.764 0.2371 3.037 1.3041 0.2909 1.1378-0.8583 2.5061-1.9523 2.9338-0.8585 0.3356-2.2661-0.3019-2.4946-1.1952zm24.728 16.517c0.4584-0.8645 0.7207-2.4149-0.1084-2.9341-0.9739-0.6096-2.824-0.2542-3.3622 0.7605-0.4859 0.9162 0.6391 2.1663 1.5184 2.7167 0.5725 0.3582 1.6358 0.0535 1.9522-0.5431zm73.209-2.608c-4.4635-4.6427-1.6905-5.8121 3.1451-1.6302 2.9829 2.5797 6.3878 4.6515 9.3275 7.2808 3.376 3.0196 0.9963 4.2376-2.7115 1.6299-3.3201-2.335-6.9482-4.3548-9.7611-7.2805zm2.0607-23.689c0.7168-0.7782 2.1314-0.7392 3.1451-0.4348 0.9812 0.2949 2.972 1.3109 2.2778 2.0646-1.1156 1.2108-3.3042 1.2345-4.8808 0.7608-0.7823-0.2351-1.0956-1.7898-0.5421-2.3906zm14.045 11.192c0.6349-0.449 1.7879-0.4477 2.3318 0.1087 0.5842 0.598 0.8996 2.0165 0.2169 2.4993-0.825 0.5834-2.2765 0.1794-2.9827-0.5431-0.4916-0.5031-0.1401-1.659 0.434-2.0649zm23.156 3.0427c-0.0159-0.9981-1.0644-2.1119-2.0607-2.1733-1.001-0.0616-2.348 0.8991-2.3319 1.9016 0.0151 0.9334 1.4542 1.4097 2.3862 1.4671 0.7769 0.0479 2.0186-0.417 2.0064-1.1954zm-41.539-3.3687c0.9831-0.3908 0.781-2.1725 0.3796-3.1511-0.274-0.6679-1.3358-1.0816-2.0063-0.8151-0.8024 0.3188-1.7376 1.3743-1.41 2.1733 0.4459 1.0873 1.9442 2.2271 3.0367 1.7929zm-59.11 5.3246c0.7155-0.7165 2.1822-0.6515 3.037-0.1084 0.9154 0.5816 2.1764 2.1657 1.4099 2.9337-0.9479 0.9498-2.8801 0.3937-4.0129-0.3257-0.7137-0.4534-1.0312-1.9013-0.434-2.4996zm19.197 3.5861c0.9844-0.0219 1.7355-1.406 1.7355-2.3906 0-1.0143-0.7218-2.5217-1.7355-2.4993-1.3615 0.0301-3.1451 1.2461-3.1451 2.6079 0 1.2951 1.8501 2.3106 3.1451 2.282zm-13.557 7.4979c-0.3037-0.6087 0.2246-1.626 0.8678-1.8473 0.8455-0.2909 2.2035-0.1482 2.6031 0.6521 0.3497 0.7004-0.5614 1.7011-1.3015 1.9559-0.7246 0.2493-1.8273-0.0754-2.1694-0.7607zm104.23-26.08c-1.3148-0.7186-2.6121 2.0909-2.7114 3.5861-0.0601 0.904 1.8394 2.0266 2.3859 1.3039 0.9851-1.3031 1.7589-4.1066 0.3255-4.89zm-9.8698 22.711c-0.4115-0.4126-1.3236-0.1952-1.7352 0.2171-0.7324 0.7337-2.0339 2.0917-1.3015 2.8253 1.0228 1.0247 3.3157 1.242 4.3382 0.2174 0.8266-0.8281-0.4752-2.432-1.3015-3.2598zm-13.123 6.9545c-0.5135-0.0642-1.536-0.1911-1.5184 0.3261 0.0372 1.0857 0.5484 2.6904 1.6268 2.8253 1.1721 0.1466 2.752-1.1013 2.7115-2.2819-0.0338-0.9831-1.8442-0.7475-2.8199-0.8695zm4.6637-27.927c0.0702-0.7493 1.0935-1.3629 1.8439-1.3039 1.3545 0.1064 3.8138 0.3856 3.6874 1.7386-0.1357 1.4513-2.5596 1.853-4.0129 1.7388-0.8811-0.0691-1.6008-1.294-1.5184-2.1735zm-8.7851 1.4128c0.1303-1.0977-0.6507-2.6142-1.7354-2.8253-0.9797-0.1906-2.0516 1.0735-2.1691 2.0646-0.117 0.9869 0.6512 2.3092 1.627 2.4993 0.9373 0.1825 2.1649-0.7904 2.2775-1.7386zm0.2168 18.908c0.1048-0.5078 0.8338-1.6234 0.3256-1.5215-1.2002 0.2405-2.7898 0.866-3.037 2.0649-0.1765 0.8556 1.5293 1.2581 2.3862 1.0865 0.5431-0.1087 0.2134-1.0876 0.3252-1.6299zm-33.296-5.7594c0.1042-0.8998 0.7971-2.6875-0.1085-2.7166-1.3886-0.045-3.0939 1.2271-3.2538 2.608-0.1307 1.1281 1.5766 2.0282 2.7115 2.0646 0.6866 0.0218 0.572-1.2737 0.6508-1.956zm19.522-4.9986c-0.5351-0.4404-1.6838-1.3743-1.9456-0.7329-0.4984 1.2209-0.3676 3.0648 0.6505 3.903 0.8123 0.669 2.6379 0.1069 3.0357-0.8673 0.3637-0.8907-0.9981-1.6913-1.7406-2.3028z"/>
</svg>
